<svg xmlns="http://www.w3.org/2000/svg" viewBox="0 0 24 24" fill="none" stroke="currentColor" stroke-width="0.8" stroke-linecap="round" stroke-linejoin="round">
  <!-- Main Body -->
  <rect x="6" y="5" width="12" height="14" rx="2" />
  
  <!-- Top Line -->
  <line x1="6" y1="9" x2="18" y2="9" />
  
  <!-- Middle Line (Windshield bottom) -->
  <line x1="6" y1="14" x2="18" y2="14" />
  
  <!-- Headlights (Dashes) -->
  <line x1="8" y1="17" x2="9" y2="17" />
  <line x1="15" y1="17" x2="16" y2="17" />
  
  <!-- Side Mirrors -->
  <path d="M6 8c-2 0 -3 1 -3 3v2" />
  <path d="M18 8c2 0 3 1 3 3v2" />
  
  <!-- Wheels -->
  <path d="M8 19v1a1.5 1.5 0 0 0 3 0v-1" />
  <path d="M13 19v1a1.5 1.5 0 0 0 3 0v-1" />
</svg>
