<svg xmlns="http://www.w3.org/2000/svg" viewBox="0 0 24 24" fill="none" stroke="currentColor" stroke-width="0.8" stroke-linecap="round" stroke-linejoin="round">
  <!-- Outline with notches -->
  <path d="M19 5H5a2 2 0 0 0-2 2v2.5a2.5 2.5 0 0 1 0 5V17a2 2 0 0 0 2 2h14a2 2 0 0 0 2-2v-2.5a2.5 2.5 0 0 1 0-5V7a2 2 0 0 0-2-2z" />
  
  <!-- Dots -->
  <circle cx="8" cy="9" r="1" fill="currentColor" stroke="none" />
  <circle cx="8" cy="12" r="1" fill="currentColor" stroke="none" />
  <circle cx="8" cy="15" r="1" fill="currentColor" stroke="none" />
  
  <!-- Lines -->
  <line x1="12" y1="9" x2="17" y2="9" />
  <line x1="12" y1="12" x2="17" y2="12" />
  <line x1="12" y1="15" x2="17" y2="15" />
</svg>
